<svg width="1440" height="900" viewBox="0 0 1440 900" fill="none" xmlns="http://www.w3.org/2000/svg">
<mask id="mask0_114_2" style="mask-type:alpha" maskUnits="userSpaceOnUse" x="994" y="142" width="787" height="708">
<path d="M1354.59 842.196C1532.43 889.005 1690.13 701.421 1746.75 601.778C1757.72 584.812 1779.87 535.232 1780.74 472.638C1781.83 394.395 1622.83 395.763 1568.67 357.261C1514.5 318.76 1476.29 239.66 1397.51 172.543C1318.72 105.426 1227.43 159.927 1201.82 251.217C1176.21 342.508 1023.7 249.134 997.173 454.027C970.65 658.92 1132.29 783.686 1354.59 842.196Z" fill="#0B56FA"/>
</mask>
<g mask="url(#mask0_114_2)">
<rect x="1041.31" y="-92.3202" width="1256.55" height="8.35841" transform="rotate(36.8196 1041.31 -92.3202)" fill="#25356A" fill-opacity="0.05"/>
<rect x="1027.95" y="-74.4777" width="1256.55" height="8.35841" transform="rotate(36.8196 1027.95 -74.4777)" fill="#25356A" fill-opacity="0.05"/>
<rect x="1014.59" y="-56.6345" width="1256.55" height="8.35841" transform="rotate(36.8196 1014.59 -56.6345)" fill="#25356A" fill-opacity="0.05"/>
<rect x="1001.23" y="-38.7916" width="1256.55" height="8.35841" transform="rotate(36.8196 1001.23 -38.7916)" fill="#25356A" fill-opacity="0.05"/>
<rect x="987.875" y="-20.9486" width="1256.55" height="8.35841" transform="rotate(36.8196 987.875 -20.9486)" fill="#25356A" fill-opacity="0.05"/>
<rect x="974.517" y="-3.10547" width="1256.55" height="8.35841" transform="rotate(36.8196 974.517 -3.10547)" fill="#25356A" fill-opacity="0.05"/>
<rect x="961.159" y="14.7374" width="1256.55" height="8.35841" transform="rotate(36.8196 961.159 14.7374)" fill="#25356A" fill-opacity="0.05"/>
<rect x="947.802" y="32.5806" width="1256.55" height="8.35841" transform="rotate(36.8196 947.802 32.5806)" fill="#25356A" fill-opacity="0.05"/>
<rect x="934.444" y="50.4235" width="1256.55" height="8.35841" transform="rotate(36.8196 934.444 50.4235)" fill="#25356A" fill-opacity="0.05"/>
<rect x="921.086" y="68.2665" width="1256.55" height="8.35841" transform="rotate(36.8196 921.086 68.2665)" fill="#25356A" fill-opacity="0.05"/>
<rect x="907.728" y="86.1095" width="1256.55" height="8.35841" transform="rotate(36.8196 907.728 86.1095)" fill="#25356A" fill-opacity="0.05"/>
<rect x="894.37" y="103.953" width="1256.55" height="8.35841" transform="rotate(36.8196 894.37 103.953)" fill="#25356A" fill-opacity="0.05"/>
<rect x="881.012" y="121.796" width="1256.55" height="8.35841" transform="rotate(36.8196 881.012 121.796)" fill="#25356A" fill-opacity="0.05"/>
<rect x="867.655" y="139.639" width="1256.55" height="8.35841" transform="rotate(36.8196 867.655 139.639)" fill="#25356A" fill-opacity="0.05"/>
<rect x="854.297" y="157.482" width="1256.55" height="8.35841" transform="rotate(36.8196 854.297 157.482)" fill="#25356A" fill-opacity="0.05"/>
<rect x="840.939" y="175.325" width="1256.55" height="8.35841" transform="rotate(36.8196 840.939 175.325)" fill="#25356A" fill-opacity="0.05"/>
<rect x="827.581" y="193.168" width="1256.55" height="8.35841" transform="rotate(36.8196 827.581 193.168)" fill="#25356A" fill-opacity="0.05"/>
<rect x="814.224" y="211.011" width="1256.55" height="8.35841" transform="rotate(36.8196 814.224 211.011)" fill="#25356A" fill-opacity="0.05"/>
<rect x="800.866" y="228.854" width="1256.55" height="8.35841" transform="rotate(36.8196 800.866 228.854)" fill="#25356A" fill-opacity="0.05"/>
<rect x="787.508" y="246.697" width="1256.55" height="8.35841" transform="rotate(36.8196 787.508 246.697)" fill="#25356A" fill-opacity="0.05"/>
<rect x="774.15" y="264.54" width="1256.55" height="8.35841" transform="rotate(36.8196 774.15 264.54)" fill="#25356A" fill-opacity="0.05"/>
<rect x="759.123" y="284.613" width="1256.55" height="8.35841" transform="rotate(36.8196 759.123 284.613)" fill="#25356A" fill-opacity="0.05"/>
<rect x="744.095" y="304.687" width="1256.55" height="8.35841" transform="rotate(36.8196 744.095 304.687)" fill="#25356A" fill-opacity="0.05"/>
<rect x="729.068" y="324.76" width="1256.55" height="8.35841" transform="rotate(36.8196 729.068 324.76)" fill="#25356A" fill-opacity="0.05"/>
<rect x="714.04" y="344.833" width="1256.55" height="8.35841" transform="rotate(36.8196 714.04 344.833)" fill="#25356A" fill-opacity="0.05"/>
<rect x="699.013" y="364.907" width="1256.55" height="8.35841" transform="rotate(36.8196 699.013 364.907)" fill="#25356A" fill-opacity="0.05"/>
<rect x="683.986" y="384.98" width="1256.55" height="8.35841" transform="rotate(36.8196 683.986 384.98)" fill="#25356A" fill-opacity="0.05"/>
</g>
<g opacity="0.05">
<path opacity="0.91" d="M275.117 195.125C-60.0647 -98.5957 -178.262 66.4696 -186.528 79.05C-186.874 79.5769 -186.997 80.1239 -186.991 80.7543L-183.061 503.638C-181.901 628.457 -81.271 730.781 40.5524 703.575C179.056 672.643 341.425 601.378 397.401 437.846C451.187 280.713 301.966 218.652 275.117 195.125Z" fill="#6FCF97"/>
</g>
<g opacity="0.91" filter="url(#filter0_d_114_2)">
<path d="M317.788 745.867C196.465 639.574 114.184 615.574 61.4203 619.374C8.69217 623.171 -14.8312 654.753 -18.5999 660.342C-18.8829 660.762 -18.9951 661.204 -18.9894 661.809L-17.0821 866.99C-16.3894 941.5 15.1832 1010.94 63.5789 1054.24C111.946 1097.52 177.093 1114.68 245.14 1084.76C315.219 1053.95 379.206 1003.87 407.059 922.518C416.852 893.914 417.387 869.696 412.423 849.19C407.457 828.677 396.972 811.815 384.625 797.957C372.274 784.096 358.076 773.258 345.711 764.798C340.866 761.483 336.312 758.54 332.257 755.919C331.136 755.194 330.052 754.493 329.011 753.817C324.232 750.71 320.31 748.076 317.788 745.867Z" stroke="#4F4F4F" stroke-width="2"/>
</g>
<mask id="mask1_114_2" style="mask-type:alpha" maskUnits="userSpaceOnUse" x="-20" y="559" width="362" height="390">
<path opacity="0.69" d="M260.682 664.312C60.4857 489.095 -12.2673 583.01 -19.407 593.441C-19.834 594.065 -19.9963 594.746 -19.9893 595.502L-18.8363 719.403C-17.4447 868.951 113.604 1004.17 240.673 925.308C282.152 899.563 317.283 863.121 334.955 811.556C367.623 716.233 276.99 678.585 260.682 664.312Z" fill="#25356A" fill-opacity="0.35"/>
</mask>
<g mask="url(#mask1_114_2)">
<circle cx="-0.953357" cy="554.072" r="5.07203" fill="#25356A" fill-opacity="0.35"/>
<circle cx="15.9534" cy="554.072" r="5.07203" fill="#25356A" fill-opacity="0.35"/>
<circle cx="32.8602" cy="554.072" r="5.07203" fill="#25356A" fill-opacity="0.35"/>
<circle cx="49.767" cy="554.072" r="5.07203" fill="#25356A" fill-opacity="0.35"/>
<circle cx="66.6737" cy="554.072" r="5.07203" fill="#25356A" fill-opacity="0.35"/>
<circle cx="83.5805" cy="554.072" r="5.07203" fill="#25356A" fill-opacity="0.35"/>
<circle cx="100.487" cy="554.072" r="5.07203" fill="#25356A" fill-opacity="0.35"/>
<circle cx="117.394" cy="554.072" r="5.07203" fill="#25356A" fill-opacity="0.35"/>
<circle cx="134.301" cy="554.072" r="5.07203" fill="#25356A" fill-opacity="0.35"/>
<circle cx="151.208" cy="554.072" r="5.07203" fill="#25356A" fill-opacity="0.35"/>
<circle cx="168.114" cy="554.072" r="5.07203" fill="#25356A" fill-opacity="0.35"/>
<circle cx="185.021" cy="554.072" r="5.07203" fill="#25356A" fill-opacity="0.35"/>
<circle cx="201.928" cy="554.072" r="5.07203" fill="#25356A" fill-opacity="0.35"/>
<circle cx="218.835" cy="554.072" r="5.07203" fill="#25356A" fill-opacity="0.35"/>
<circle cx="235.742" cy="554.072" r="5.07203" fill="#25356A" fill-opacity="0.35"/>
<circle cx="252.648" cy="554.072" r="5.07203" fill="#25356A" fill-opacity="0.35"/>
<circle cx="269.555" cy="554.072" r="5.07203" fill="#25356A" fill-opacity="0.35"/>
<circle cx="286.462" cy="554.072" r="5.07203" fill="#25356A" fill-opacity="0.35"/>
<circle cx="303.369" cy="554.072" r="5.07203" fill="#25356A" fill-opacity="0.35"/>
<circle cx="320.275" cy="554.072" r="5.07203" fill="#25356A" fill-opacity="0.35"/>
<circle cx="337.182" cy="554.072" r="5.07203" fill="#25356A" fill-opacity="0.35"/>
<circle cx="15.9534" cy="570.979" r="5.07203" fill="#25356A" fill-opacity="0.35"/>
<circle cx="32.8602" cy="570.979" r="5.07203" fill="#25356A" fill-opacity="0.35"/>
<circle cx="49.767" cy="570.979" r="5.07203" fill="#25356A" fill-opacity="0.35"/>
<circle cx="66.6737" cy="570.979" r="5.07203" fill="#25356A" fill-opacity="0.35"/>
<circle cx="83.5805" cy="570.979" r="5.07203" fill="#25356A" fill-opacity="0.35"/>
<circle cx="134.301" cy="570.979" r="5.07203" fill="#25356A" fill-opacity="0.35"/>
<circle cx="151.208" cy="570.979" r="5.07203" fill="#25356A" fill-opacity="0.35"/>
<circle cx="168.114" cy="570.979" r="5.07203" fill="#25356A" fill-opacity="0.35"/>
<circle cx="185.021" cy="570.979" r="5.07203" fill="#25356A" fill-opacity="0.35"/>
<circle cx="201.928" cy="570.979" r="5.07203" fill="#25356A" fill-opacity="0.35"/>
<circle cx="218.835" cy="570.979" r="5.07203" fill="#25356A" fill-opacity="0.35"/>
<circle cx="235.742" cy="570.979" r="5.07203" fill="#25356A" fill-opacity="0.35"/>
<circle cx="252.648" cy="570.979" r="5.07203" fill="#25356A" fill-opacity="0.35"/>
<circle cx="269.555" cy="570.979" r="5.07203" fill="#25356A" fill-opacity="0.35"/>
<circle cx="286.462" cy="570.979" r="5.07203" fill="#25356A" fill-opacity="0.35"/>
<circle cx="303.369" cy="570.979" r="5.07203" fill="#25356A" fill-opacity="0.35"/>
<circle cx="320.275" cy="570.979" r="5.07203" fill="#25356A" fill-opacity="0.35"/>
<circle cx="337.182" cy="570.979" r="5.07203" fill="#25356A" fill-opacity="0.35"/>
<circle cx="-0.953357" cy="587.885" r="5.07203" fill="#25356A" fill-opacity="0.35"/>
<circle cx="15.9534" cy="587.885" r="5.07203" fill="#25356A" fill-opacity="0.35"/>
<circle cx="32.8602" cy="587.885" r="5.07203" fill="#25356A" fill-opacity="0.35"/>
<circle cx="49.767" cy="587.885" r="5.07203" fill="#25356A" fill-opacity="0.35"/>
<circle cx="66.6737" cy="587.885" r="5.07203" fill="#25356A" fill-opacity="0.35"/>
<circle cx="83.5805" cy="587.885" r="5.07203" fill="#25356A" fill-opacity="0.35"/>
<circle cx="100.487" cy="587.885" r="5.07203" fill="#25356A" fill-opacity="0.35"/>
<circle cx="117.394" cy="587.885" r="5.07203" fill="#25356A" fill-opacity="0.35"/>
<circle cx="134.301" cy="587.885" r="5.07203" fill="#25356A" fill-opacity="0.35"/>
<circle cx="168.114" cy="587.885" r="5.07203" fill="#25356A" fill-opacity="0.35"/>
<circle cx="185.021" cy="587.885" r="5.07203" fill="#25356A" fill-opacity="0.35"/>
<circle cx="201.928" cy="587.885" r="5.07203" fill="#25356A" fill-opacity="0.35"/>
<circle cx="218.835" cy="587.885" r="5.07203" fill="#25356A" fill-opacity="0.35"/>
<circle cx="235.742" cy="587.885" r="5.07203" fill="#25356A" fill-opacity="0.35"/>
<circle cx="252.648" cy="587.885" r="5.07203" fill="#25356A" fill-opacity="0.35"/>
<circle cx="269.555" cy="587.885" r="5.07203" fill="#25356A" fill-opacity="0.35"/>
<circle cx="286.462" cy="587.885" r="5.07203" fill="#25356A" fill-opacity="0.35"/>
<circle cx="303.369" cy="587.885" r="5.07203" fill="#25356A" fill-opacity="0.35"/>
<circle cx="320.275" cy="587.885" r="5.07203" fill="#25356A" fill-opacity="0.35"/>
<circle cx="337.182" cy="587.885" r="5.07203" fill="#25356A" fill-opacity="0.35"/>
<circle cx="-0.953357" cy="604.792" r="5.07203" fill="#25356A" fill-opacity="0.35"/>
<circle cx="15.9534" cy="604.792" r="5.07203" fill="#25356A" fill-opacity="0.35"/>
<circle cx="32.8602" cy="604.792" r="5.07203" fill="#25356A" fill-opacity="0.35"/>
<circle cx="49.767" cy="604.792" r="5.07203" fill="#25356A" fill-opacity="0.35"/>
<circle cx="66.6737" cy="604.792" r="5.07203" fill="#25356A" fill-opacity="0.35"/>
<circle cx="83.5805" cy="604.792" r="5.07203" fill="#25356A" fill-opacity="0.35"/>
<circle cx="100.487" cy="604.792" r="5.07203" fill="#25356A" fill-opacity="0.35"/>
<circle cx="117.394" cy="604.792" r="5.07203" fill="#25356A" fill-opacity="0.35"/>
<circle cx="134.301" cy="604.792" r="5.07203" fill="#25356A" fill-opacity="0.35"/>
<circle cx="151.208" cy="604.792" r="5.07203" fill="#25356A" fill-opacity="0.35"/>
<circle cx="168.114" cy="604.792" r="5.07203" fill="#25356A" fill-opacity="0.35"/>
<circle cx="201.928" cy="604.792" r="5.07203" fill="#25356A" fill-opacity="0.35"/>
<circle cx="218.835" cy="604.792" r="5.07203" fill="#25356A" fill-opacity="0.35"/>
<circle cx="235.742" cy="604.792" r="5.07203" fill="#25356A" fill-opacity="0.35"/>
<circle cx="252.648" cy="604.792" r="5.07203" fill="#25356A" fill-opacity="0.35"/>
<circle cx="269.555" cy="604.792" r="5.07203" fill="#25356A" fill-opacity="0.35"/>
<circle cx="286.462" cy="604.792" r="5.07203" fill="#25356A" fill-opacity="0.35"/>
<circle cx="303.369" cy="604.792" r="5.07203" fill="#25356A" fill-opacity="0.35"/>
<circle cx="320.275" cy="604.792" r="5.07203" fill="#25356A" fill-opacity="0.35"/>
<circle cx="337.182" cy="604.792" r="5.07203" fill="#25356A" fill-opacity="0.35"/>
<circle cx="-0.953357" cy="621.699" r="5.07203" fill="#25356A" fill-opacity="0.35"/>
<circle cx="15.9534" cy="621.699" r="5.07203" fill="#25356A" fill-opacity="0.35"/>
<circle cx="32.8602" cy="621.699" r="5.07203" fill="#25356A" fill-opacity="0.35"/>
<circle cx="49.767" cy="621.699" r="5.07203" fill="#25356A" fill-opacity="0.35"/>
<circle cx="66.6737" cy="621.699" r="5.07203" fill="#25356A" fill-opacity="0.35"/>
<circle cx="83.5805" cy="621.699" r="5.07203" fill="#25356A" fill-opacity="0.35"/>
<circle cx="100.487" cy="621.699" r="5.07203" fill="#25356A" fill-opacity="0.35"/>
<circle cx="117.394" cy="621.699" r="5.07203" fill="#25356A" fill-opacity="0.35"/>
<circle cx="134.301" cy="621.699" r="5.07203" fill="#25356A" fill-opacity="0.35"/>
<circle cx="151.208" cy="621.699" r="5.07203" fill="#25356A" fill-opacity="0.35"/>
<circle cx="168.114" cy="621.699" r="5.07203" fill="#25356A" fill-opacity="0.35"/>
<circle cx="185.021" cy="621.699" r="5.07203" fill="#25356A" fill-opacity="0.35"/>
<circle cx="218.835" cy="621.699" r="5.07203" fill="#25356A" fill-opacity="0.35"/>
<circle cx="235.742" cy="621.699" r="5.07203" fill="#25356A" fill-opacity="0.35"/>
<circle cx="252.648" cy="621.699" r="5.07203" fill="#25356A" fill-opacity="0.35"/>
<circle cx="269.555" cy="621.699" r="5.07203" fill="#25356A" fill-opacity="0.35"/>
<circle cx="286.462" cy="621.699" r="5.07203" fill="#25356A" fill-opacity="0.35"/>
<circle cx="303.369" cy="621.699" r="5.07203" fill="#25356A" fill-opacity="0.35"/>
<circle cx="320.275" cy="621.699" r="5.07203" fill="#25356A" fill-opacity="0.35"/>
<circle cx="337.182" cy="621.699" r="5.07203" fill="#25356A" fill-opacity="0.35"/>
<circle cx="-0.953357" cy="638.606" r="5.07203" fill="#25356A" fill-opacity="0.35"/>
<circle cx="15.9534" cy="638.606" r="5.07203" fill="#25356A" fill-opacity="0.35"/>
<circle cx="32.8602" cy="638.606" r="5.07203" fill="#25356A" fill-opacity="0.35"/>
<circle cx="49.767" cy="638.606" r="5.07203" fill="#25356A" fill-opacity="0.35"/>
<circle cx="66.6737" cy="638.606" r="5.07203" fill="#25356A" fill-opacity="0.35"/>
<circle cx="83.5805" cy="638.606" r="5.07203" fill="#25356A" fill-opacity="0.35"/>
<circle cx="100.487" cy="638.606" r="5.07203" fill="#25356A" fill-opacity="0.35"/>
<circle cx="117.394" cy="638.606" r="5.07203" fill="#25356A" fill-opacity="0.35"/>
<circle cx="134.301" cy="638.606" r="5.07203" fill="#25356A" fill-opacity="0.35"/>
<circle cx="151.208" cy="638.606" r="5.07203" fill="#25356A" fill-opacity="0.35"/>
<circle cx="168.114" cy="638.606" r="5.07203" fill="#25356A" fill-opacity="0.35"/>
<circle cx="185.021" cy="638.606" r="5.07203" fill="#25356A" fill-opacity="0.35"/>
<circle cx="201.928" cy="638.606" r="5.07203" fill="#25356A" fill-opacity="0.35"/>
<circle cx="218.835" cy="638.606" r="5.07203" fill="#25356A" fill-opacity="0.35"/>
<circle cx="252.648" cy="638.606" r="5.07203" fill="#25356A" fill-opacity="0.35"/>
<circle cx="269.555" cy="638.606" r="5.07203" fill="#25356A" fill-opacity="0.35"/>
<circle cx="286.462" cy="638.606" r="5.07203" fill="#25356A" fill-opacity="0.35"/>
<circle cx="303.369" cy="638.606" r="5.07203" fill="#25356A" fill-opacity="0.35"/>
<circle cx="320.275" cy="638.606" r="5.07203" fill="#25356A" fill-opacity="0.35"/>
<circle cx="337.182" cy="638.606" r="5.07203" fill="#25356A" fill-opacity="0.35"/>
<circle cx="-0.953357" cy="655.513" r="5.07203" fill="#25356A" fill-opacity="0.35"/>
<circle cx="15.9534" cy="655.513" r="5.07203" fill="#25356A" fill-opacity="0.35"/>
<circle cx="32.8602" cy="655.513" r="5.07203" fill="#25356A" fill-opacity="0.35"/>
<circle cx="49.767" cy="655.513" r="5.07203" fill="#25356A" fill-opacity="0.35"/>
<circle cx="66.6737" cy="655.513" r="5.07203" fill="#25356A" fill-opacity="0.35"/>
<circle cx="83.5805" cy="655.513" r="5.07203" fill="#25356A" fill-opacity="0.35"/>
<circle cx="100.487" cy="655.513" r="5.07203" fill="#25356A" fill-opacity="0.35"/>
<circle cx="117.394" cy="655.513" r="5.07203" fill="#25356A" fill-opacity="0.35"/>
<circle cx="134.301" cy="655.513" r="5.07203" fill="#25356A" fill-opacity="0.35"/>
<circle cx="151.208" cy="655.513" r="5.07203" fill="#25356A" fill-opacity="0.35"/>
<circle cx="168.114" cy="655.513" r="5.07203" fill="#25356A" fill-opacity="0.35"/>
<circle cx="185.021" cy="655.513" r="5.07203" fill="#25356A" fill-opacity="0.35"/>
<circle cx="201.928" cy="655.513" r="5.07203" fill="#25356A" fill-opacity="0.35"/>
<circle cx="218.835" cy="655.513" r="5.07203" fill="#25356A" fill-opacity="0.35"/>
<circle cx="235.742" cy="655.513" r="5.07203" fill="#25356A" fill-opacity="0.35"/>
<circle cx="269.555" cy="655.513" r="5.07203" fill="#25356A" fill-opacity="0.35"/>
<circle cx="286.462" cy="655.513" r="5.07203" fill="#25356A" fill-opacity="0.35"/>
<circle cx="303.369" cy="655.513" r="5.07203" fill="#25356A" fill-opacity="0.35"/>
<circle cx="320.275" cy="655.513" r="5.07203" fill="#25356A" fill-opacity="0.35"/>
<circle cx="337.182" cy="655.513" r="5.07203" fill="#25356A" fill-opacity="0.35"/>
<circle cx="-0.953357" cy="672.419" r="5.07203" fill="#25356A" fill-opacity="0.35"/>
<circle cx="15.9534" cy="672.419" r="5.07203" fill="#25356A" fill-opacity="0.35"/>
<circle cx="32.8602" cy="672.419" r="5.07203" fill="#25356A" fill-opacity="0.35"/>
<circle cx="49.767" cy="672.419" r="5.07203" fill="#25356A" fill-opacity="0.35"/>
<circle cx="66.6737" cy="672.419" r="5.07203" fill="#25356A" fill-opacity="0.35"/>
<circle cx="83.5805" cy="672.419" r="5.07203" fill="#25356A" fill-opacity="0.35"/>
<circle cx="100.487" cy="672.419" r="5.07203" fill="#25356A" fill-opacity="0.35"/>
<circle cx="117.394" cy="672.419" r="5.07203" fill="#25356A" fill-opacity="0.35"/>
<circle cx="134.301" cy="672.419" r="5.07203" fill="#25356A" fill-opacity="0.35"/>
<circle cx="151.208" cy="672.419" r="5.07203" fill="#25356A" fill-opacity="0.35"/>
<circle cx="168.114" cy="672.419" r="5.07203" fill="#25356A" fill-opacity="0.35"/>
<circle cx="185.021" cy="672.419" r="5.07203" fill="#25356A" fill-opacity="0.35"/>
<circle cx="201.928" cy="672.419" r="5.07203" fill="#25356A" fill-opacity="0.35"/>
<circle cx="218.835" cy="672.419" r="5.07203" fill="#25356A" fill-opacity="0.35"/>
<circle cx="235.742" cy="672.419" r="5.07203" fill="#25356A" fill-opacity="0.35"/>
<circle cx="252.648" cy="672.419" r="5.07203" fill="#25356A" fill-opacity="0.35"/>
<circle cx="286.462" cy="672.419" r="5.07203" fill="#25356A" fill-opacity="0.35"/>
<circle cx="303.369" cy="672.419" r="5.07203" fill="#25356A" fill-opacity="0.35"/>
<circle cx="320.275" cy="672.419" r="5.07203" fill="#25356A" fill-opacity="0.35"/>
<circle cx="337.182" cy="672.419" r="5.07203" fill="#25356A" fill-opacity="0.35"/>
<circle cx="-0.953357" cy="689.326" r="5.07203" fill="#25356A" fill-opacity="0.35"/>
<circle cx="15.9534" cy="689.326" r="5.07203" fill="#25356A" fill-opacity="0.35"/>
<circle cx="32.8602" cy="689.326" r="5.07203" fill="#25356A" fill-opacity="0.35"/>
<circle cx="49.767" cy="689.326" r="5.07203" fill="#25356A" fill-opacity="0.35"/>
<circle cx="66.6737" cy="689.326" r="5.07203" fill="#25356A" fill-opacity="0.35"/>
<circle cx="83.5805" cy="689.326" r="5.07203" fill="#25356A" fill-opacity="0.35"/>
<circle cx="100.487" cy="689.326" r="5.07203" fill="#25356A" fill-opacity="0.35"/>
<circle cx="117.394" cy="689.326" r="5.07203" fill="#25356A" fill-opacity="0.35"/>
<circle cx="134.301" cy="689.326" r="5.07203" fill="#25356A" fill-opacity="0.35"/>
<circle cx="151.208" cy="689.326" r="5.07203" fill="#25356A" fill-opacity="0.35"/>
<circle cx="168.114" cy="689.326" r="5.07203" fill="#25356A" fill-opacity="0.35"/>
<circle cx="185.021" cy="689.326" r="5.07203" fill="#25356A" fill-opacity="0.35"/>
<circle cx="201.928" cy="689.326" r="5.07203" fill="#25356A" fill-opacity="0.35"/>
<circle cx="218.835" cy="689.326" r="5.07203" fill="#25356A" fill-opacity="0.35"/>
<circle cx="235.742" cy="689.326" r="5.07203" fill="#25356A" fill-opacity="0.35"/>
<circle cx="252.648" cy="689.326" r="5.07203" fill="#25356A" fill-opacity="0.35"/>
<circle cx="269.555" cy="689.326" r="5.07203" fill="#25356A" fill-opacity="0.35"/>
<circle cx="286.462" cy="689.326" r="5.07203" fill="#25356A" fill-opacity="0.35"/>
<circle cx="320.275" cy="689.326" r="5.07203" fill="#25356A" fill-opacity="0.35"/>
<circle cx="337.182" cy="689.326" r="5.07203" fill="#25356A" fill-opacity="0.35"/>
<circle cx="-0.953357" cy="706.233" r="5.07203" fill="#25356A" fill-opacity="0.35"/>
<circle cx="15.9534" cy="706.233" r="5.07203" fill="#25356A" fill-opacity="0.35"/>
<circle cx="32.8602" cy="706.233" r="5.07203" fill="#25356A" fill-opacity="0.35"/>
<circle cx="49.767" cy="706.233" r="5.07203" fill="#25356A" fill-opacity="0.35"/>
<circle cx="66.6737" cy="706.233" r="5.07203" fill="#25356A" fill-opacity="0.35"/>
<circle cx="83.5805" cy="706.233" r="5.07203" fill="#25356A" fill-opacity="0.35"/>
<circle cx="100.487" cy="706.233" r="5.07203" fill="#25356A" fill-opacity="0.35"/>
<circle cx="117.394" cy="706.233" r="5.07203" fill="#25356A" fill-opacity="0.35"/>
<circle cx="134.301" cy="706.233" r="5.07203" fill="#25356A" fill-opacity="0.35"/>
<circle cx="151.208" cy="706.233" r="5.07203" fill="#25356A" fill-opacity="0.35"/>
<circle cx="168.114" cy="706.233" r="5.07203" fill="#25356A" fill-opacity="0.35"/>
<circle cx="185.021" cy="706.233" r="5.07203" fill="#25356A" fill-opacity="0.35"/>
<circle cx="201.928" cy="706.233" r="5.07203" fill="#25356A" fill-opacity="0.35"/>
<circle cx="218.835" cy="706.233" r="5.07203" fill="#25356A" fill-opacity="0.35"/>
<circle cx="235.742" cy="706.233" r="5.07203" fill="#25356A" fill-opacity="0.35"/>
<circle cx="252.648" cy="706.233" r="5.07203" fill="#25356A" fill-opacity="0.35"/>
<circle cx="269.555" cy="706.233" r="5.07203" fill="#25356A" fill-opacity="0.35"/>
<circle cx="286.462" cy="706.233" r="5.07203" fill="#25356A" fill-opacity="0.35"/>
<circle cx="303.369" cy="706.233" r="5.07203" fill="#25356A" fill-opacity="0.35"/>
<circle cx="337.182" cy="706.233" r="5.07203" fill="#25356A" fill-opacity="0.35"/>
<circle cx="-0.953357" cy="723.14" r="5.07203" fill="#25356A" fill-opacity="0.35"/>
<circle cx="15.9534" cy="723.14" r="5.07203" fill="#25356A" fill-opacity="0.35"/>
<circle cx="32.8602" cy="723.14" r="5.07203" fill="#25356A" fill-opacity="0.35"/>
<circle cx="49.767" cy="723.14" r="5.07203" fill="#25356A" fill-opacity="0.35"/>
<circle cx="66.6737" cy="723.14" r="5.07203" fill="#25356A" fill-opacity="0.35"/>
<circle cx="83.5805" cy="723.14" r="5.07203" fill="#25356A" fill-opacity="0.35"/>
<circle cx="100.487" cy="723.14" r="5.07203" fill="#25356A" fill-opacity="0.35"/>
<circle cx="117.394" cy="723.14" r="5.07203" fill="#25356A" fill-opacity="0.35"/>
<circle cx="134.301" cy="723.14" r="5.07203" fill="#25356A" fill-opacity="0.35"/>
<circle cx="151.208" cy="723.14" r="5.07203" fill="#25356A" fill-opacity="0.35"/>
<circle cx="168.114" cy="723.14" r="5.07203" fill="#25356A" fill-opacity="0.35"/>
<circle cx="185.021" cy="723.14" r="5.07203" fill="#25356A" fill-opacity="0.35"/>
<circle cx="201.928" cy="723.14" r="5.07203" fill="#25356A" fill-opacity="0.35"/>
<circle cx="218.835" cy="723.14" r="5.07203" fill="#25356A" fill-opacity="0.35"/>
<circle cx="235.742" cy="723.14" r="5.07203" fill="#25356A" fill-opacity="0.35"/>
<circle cx="252.648" cy="723.14" r="5.07203" fill="#25356A" fill-opacity="0.35"/>
<circle cx="269.555" cy="723.14" r="5.07203" fill="#25356A" fill-opacity="0.35"/>
<circle cx="286.462" cy="723.14" r="5.07203" fill="#25356A" fill-opacity="0.35"/>
<circle cx="303.369" cy="723.14" r="5.07203" fill="#25356A" fill-opacity="0.35"/>
<circle cx="320.275" cy="723.14" r="5.07203" fill="#25356A" fill-opacity="0.35"/>
<circle cx="337.182" cy="723.14" r="5.07203" fill="#25356A" fill-opacity="0.35"/>
<circle cx="-0.953357" cy="740.047" r="5.07203" fill="#25356A" fill-opacity="0.35"/>
<circle cx="15.9534" cy="740.047" r="5.07203" fill="#25356A" fill-opacity="0.35"/>
<circle cx="32.8602" cy="740.047" r="5.07203" fill="#25356A" fill-opacity="0.35"/>
<circle cx="49.767" cy="740.047" r="5.07203" fill="#25356A" fill-opacity="0.35"/>
<circle cx="66.6737" cy="740.047" r="5.07203" fill="#25356A" fill-opacity="0.35"/>
<circle cx="83.5805" cy="740.047" r="5.07203" fill="#25356A" fill-opacity="0.35"/>
<circle cx="100.487" cy="740.047" r="5.07203" fill="#25356A" fill-opacity="0.35"/>
<circle cx="117.394" cy="740.047" r="5.07203" fill="#25356A" fill-opacity="0.35"/>
<circle cx="134.301" cy="740.047" r="5.07203" fill="#25356A" fill-opacity="0.35"/>
<circle cx="151.208" cy="740.047" r="5.07203" fill="#25356A" fill-opacity="0.35"/>
<circle cx="168.114" cy="740.047" r="5.07203" fill="#25356A" fill-opacity="0.35"/>
<circle cx="185.021" cy="740.047" r="5.07203" fill="#25356A" fill-opacity="0.35"/>
<circle cx="201.928" cy="740.047" r="5.07203" fill="#25356A" fill-opacity="0.35"/>
<circle cx="218.835" cy="740.047" r="5.07203" fill="#25356A" fill-opacity="0.35"/>
<circle cx="235.742" cy="740.047" r="5.07203" fill="#25356A" fill-opacity="0.35"/>
<circle cx="252.648" cy="740.047" r="5.07203" fill="#25356A" fill-opacity="0.35"/>
<circle cx="269.555" cy="740.047" r="5.07203" fill="#25356A" fill-opacity="0.35"/>
<circle cx="286.462" cy="740.047" r="5.07203" fill="#25356A" fill-opacity="0.35"/>
<circle cx="303.369" cy="740.047" r="5.07203" fill="#25356A" fill-opacity="0.35"/>
<circle cx="320.275" cy="740.047" r="5.07203" fill="#25356A" fill-opacity="0.35"/>
<circle cx="-0.953357" cy="756.953" r="5.07203" fill="#25356A" fill-opacity="0.35"/>
<circle cx="15.9534" cy="756.953" r="5.07203" fill="#25356A" fill-opacity="0.35"/>
<circle cx="32.8602" cy="756.953" r="5.07203" fill="#25356A" fill-opacity="0.35"/>
<circle cx="49.767" cy="756.953" r="5.07203" fill="#25356A" fill-opacity="0.35"/>
<circle cx="66.6737" cy="756.953" r="5.07203" fill="#25356A" fill-opacity="0.35"/>
<circle cx="83.5805" cy="756.953" r="5.07203" fill="#25356A" fill-opacity="0.35"/>
<circle cx="100.487" cy="756.953" r="5.07203" fill="#25356A" fill-opacity="0.35"/>
<circle cx="117.394" cy="756.953" r="5.07203" fill="#25356A" fill-opacity="0.35"/>
<circle cx="134.301" cy="756.953" r="5.07203" fill="#25356A" fill-opacity="0.35"/>
<circle cx="151.208" cy="756.953" r="5.07203" fill="#25356A" fill-opacity="0.35"/>
<circle cx="168.114" cy="756.953" r="5.07203" fill="#25356A" fill-opacity="0.35"/>
<circle cx="185.021" cy="756.953" r="5.07203" fill="#25356A" fill-opacity="0.35"/>
<circle cx="201.928" cy="756.953" r="5.07203" fill="#25356A" fill-opacity="0.35"/>
<circle cx="218.835" cy="756.953" r="5.07203" fill="#25356A" fill-opacity="0.35"/>
<circle cx="235.742" cy="756.953" r="5.07203" fill="#25356A" fill-opacity="0.35"/>
<circle cx="252.648" cy="756.953" r="5.07203" fill="#25356A" fill-opacity="0.35"/>
<circle cx="269.555" cy="756.953" r="5.07203" fill="#25356A" fill-opacity="0.35"/>
<circle cx="286.462" cy="756.953" r="5.07203" fill="#25356A" fill-opacity="0.35"/>
<circle cx="303.369" cy="756.953" r="5.07203" fill="#25356A" fill-opacity="0.35"/>
<circle cx="320.275" cy="756.953" r="5.07203" fill="#25356A" fill-opacity="0.35"/>
<circle cx="-0.953357" cy="773.86" r="5.07203" fill="#25356A" fill-opacity="0.35"/>
<circle cx="15.9534" cy="773.86" r="5.07203" fill="#25356A" fill-opacity="0.35"/>
<circle cx="32.8602" cy="773.86" r="5.07203" fill="#25356A" fill-opacity="0.35"/>
<circle cx="49.767" cy="773.86" r="5.07203" fill="#25356A" fill-opacity="0.35"/>
<circle cx="66.6737" cy="773.86" r="5.07203" fill="#25356A" fill-opacity="0.35"/>
<circle cx="83.5805" cy="773.86" r="5.07203" fill="#25356A" fill-opacity="0.35"/>
<circle cx="100.487" cy="773.86" r="5.07203" fill="#25356A" fill-opacity="0.35"/>
<circle cx="117.394" cy="773.86" r="5.07203" fill="#25356A" fill-opacity="0.35"/>
<circle cx="134.301" cy="773.86" r="5.07203" fill="#25356A" fill-opacity="0.35"/>
<circle cx="151.208" cy="773.86" r="5.07203" fill="#25356A" fill-opacity="0.35"/>
<circle cx="168.114" cy="773.86" r="5.07203" fill="#25356A" fill-opacity="0.35"/>
<circle cx="185.021" cy="773.86" r="5.07203" fill="#25356A" fill-opacity="0.35"/>
<circle cx="201.928" cy="773.86" r="5.07203" fill="#25356A" fill-opacity="0.35"/>
<circle cx="218.835" cy="773.86" r="5.07203" fill="#25356A" fill-opacity="0.35"/>
<circle cx="235.742" cy="773.86" r="5.07203" fill="#25356A" fill-opacity="0.35"/>
<circle cx="252.648" cy="773.86" r="5.07203" fill="#25356A" fill-opacity="0.35"/>
<circle cx="269.555" cy="773.86" r="5.07203" fill="#25356A" fill-opacity="0.35"/>
<circle cx="286.462" cy="773.86" r="5.07203" fill="#25356A" fill-opacity="0.35"/>
<circle cx="303.369" cy="773.86" r="5.07203" fill="#25356A" fill-opacity="0.35"/>
<circle cx="320.275" cy="773.86" r="5.07203" fill="#25356A" fill-opacity="0.35"/>
<circle cx="337.182" cy="773.86" r="5.07203" fill="#25356A" fill-opacity="0.35"/>
<circle cx="-0.953357" cy="790.767" r="5.07203" fill="#25356A" fill-opacity="0.35"/>
<circle cx="15.9534" cy="790.767" r="5.07203" fill="#25356A" fill-opacity="0.35"/>
<circle cx="32.8602" cy="790.767" r="5.07203" fill="#25356A" fill-opacity="0.35"/>
<circle cx="49.767" cy="790.767" r="5.07203" fill="#25356A" fill-opacity="0.35"/>
<circle cx="66.6737" cy="790.767" r="5.07203" fill="#25356A" fill-opacity="0.35"/>
<circle cx="83.5805" cy="790.767" r="5.07203" fill="#25356A" fill-opacity="0.35"/>
<circle cx="100.487" cy="790.767" r="5.07203" fill="#25356A" fill-opacity="0.35"/>
<circle cx="117.394" cy="790.767" r="5.07203" fill="#25356A" fill-opacity="0.35"/>
<circle cx="134.301" cy="790.767" r="5.07203" fill="#25356A" fill-opacity="0.35"/>
<circle cx="151.208" cy="790.767" r="5.07203" fill="#25356A" fill-opacity="0.35"/>
<circle cx="168.114" cy="790.767" r="5.07203" fill="#25356A" fill-opacity="0.35"/>
<circle cx="185.021" cy="790.767" r="5.07203" fill="#25356A" fill-opacity="0.35"/>
<circle cx="201.928" cy="790.767" r="5.07203" fill="#25356A" fill-opacity="0.35"/>
<circle cx="218.835" cy="790.767" r="5.07203" fill="#25356A" fill-opacity="0.35"/>
<circle cx="235.742" cy="790.767" r="5.07203" fill="#25356A" fill-opacity="0.35"/>
<circle cx="252.648" cy="790.767" r="5.07203" fill="#25356A" fill-opacity="0.35"/>
<circle cx="269.555" cy="790.767" r="5.07203" fill="#25356A" fill-opacity="0.35"/>
<circle cx="286.462" cy="790.767" r="5.07203" fill="#25356A" fill-opacity="0.35"/>
<circle cx="303.369" cy="790.767" r="5.07203" fill="#25356A" fill-opacity="0.35"/>
<circle cx="320.275" cy="790.767" r="5.07203" fill="#25356A" fill-opacity="0.35"/>
<circle cx="-0.953357" cy="807.674" r="5.07203" fill="#25356A" fill-opacity="0.35"/>
<circle cx="15.9534" cy="807.674" r="5.07203" fill="#25356A" fill-opacity="0.35"/>
<circle cx="32.8602" cy="807.674" r="5.07203" fill="#25356A" fill-opacity="0.35"/>
<circle cx="49.767" cy="807.674" r="5.07203" fill="#25356A" fill-opacity="0.35"/>
<circle cx="66.6737" cy="807.674" r="5.07203" fill="#25356A" fill-opacity="0.35"/>
<circle cx="83.5805" cy="807.674" r="5.07203" fill="#25356A" fill-opacity="0.35"/>
<circle cx="100.487" cy="807.674" r="5.07203" fill="#25356A" fill-opacity="0.35"/>
<circle cx="117.394" cy="807.674" r="5.07203" fill="#25356A" fill-opacity="0.35"/>
<circle cx="134.301" cy="807.674" r="5.07203" fill="#25356A" fill-opacity="0.35"/>
<circle cx="151.208" cy="807.674" r="5.07203" fill="#25356A" fill-opacity="0.35"/>
<circle cx="168.114" cy="807.674" r="5.07203" fill="#25356A" fill-opacity="0.35"/>
<circle cx="185.021" cy="807.674" r="5.07203" fill="#25356A" fill-opacity="0.35"/>
<circle cx="201.928" cy="807.674" r="5.07203" fill="#25356A" fill-opacity="0.35"/>
<circle cx="218.835" cy="807.674" r="5.07203" fill="#25356A" fill-opacity="0.35"/>
<circle cx="235.742" cy="807.674" r="5.07203" fill="#25356A" fill-opacity="0.35"/>
<circle cx="252.648" cy="807.674" r="5.07203" fill="#25356A" fill-opacity="0.35"/>
<circle cx="269.555" cy="807.674" r="5.07203" fill="#25356A" fill-opacity="0.35"/>
<circle cx="286.462" cy="807.674" r="5.07203" fill="#25356A" fill-opacity="0.35"/>
<circle cx="303.369" cy="807.674" r="5.07203" fill="#25356A" fill-opacity="0.35"/>
<circle cx="320.275" cy="807.674" r="5.07203" fill="#25356A" fill-opacity="0.35"/>
<circle cx="-0.953357" cy="824.581" r="5.07203" fill="#25356A" fill-opacity="0.35"/>
<circle cx="15.9534" cy="824.581" r="5.07203" fill="#25356A" fill-opacity="0.35"/>
<circle cx="32.8602" cy="824.581" r="5.07203" fill="#25356A" fill-opacity="0.35"/>
<circle cx="49.767" cy="824.581" r="5.07203" fill="#25356A" fill-opacity="0.35"/>
<circle cx="66.6737" cy="824.581" r="5.07203" fill="#25356A" fill-opacity="0.35"/>
<circle cx="83.5805" cy="824.581" r="5.07203" fill="#25356A" fill-opacity="0.35"/>
<circle cx="100.487" cy="824.581" r="5.07203" fill="#25356A" fill-opacity="0.35"/>
<circle cx="117.394" cy="824.581" r="5.07203" fill="#25356A" fill-opacity="0.35"/>
<circle cx="134.301" cy="824.581" r="5.07203" fill="#25356A" fill-opacity="0.35"/>
<circle cx="151.208" cy="824.581" r="5.07203" fill="#25356A" fill-opacity="0.35"/>
<circle cx="168.114" cy="824.581" r="5.07203" fill="#25356A" fill-opacity="0.35"/>
<circle cx="185.021" cy="824.581" r="5.07203" fill="#25356A" fill-opacity="0.35"/>
<circle cx="201.928" cy="824.581" r="5.07203" fill="#25356A" fill-opacity="0.35"/>
<circle cx="218.835" cy="824.581" r="5.07203" fill="#25356A" fill-opacity="0.35"/>
<circle cx="235.742" cy="824.581" r="5.07203" fill="#25356A" fill-opacity="0.35"/>
<circle cx="252.648" cy="824.581" r="5.07203" fill="#25356A" fill-opacity="0.35"/>
<circle cx="269.555" cy="824.581" r="5.07203" fill="#25356A" fill-opacity="0.35"/>
<circle cx="286.462" cy="824.581" r="5.07203" fill="#25356A" fill-opacity="0.35"/>
<circle cx="303.369" cy="824.581" r="5.07203" fill="#25356A" fill-opacity="0.35"/>
<circle cx="320.275" cy="824.581" r="5.07203" fill="#25356A" fill-opacity="0.35"/>
<circle cx="337.182" cy="824.581" r="5.07203" fill="#25356A" fill-opacity="0.35"/>
<circle cx="-0.953357" cy="841.487" r="5.07203" fill="#25356A" fill-opacity="0.35"/>
<circle cx="15.9534" cy="841.487" r="5.07203" fill="#25356A" fill-opacity="0.35"/>
<circle cx="32.8602" cy="841.487" r="5.07203" fill="#25356A" fill-opacity="0.35"/>
<circle cx="49.767" cy="841.487" r="5.07203" fill="#25356A" fill-opacity="0.35"/>
<circle cx="66.6737" cy="841.487" r="5.07203" fill="#25356A" fill-opacity="0.35"/>
<circle cx="83.5805" cy="841.487" r="5.07203" fill="#25356A" fill-opacity="0.35"/>
<circle cx="100.487" cy="841.487" r="5.07203" fill="#25356A" fill-opacity="0.35"/>
<circle cx="117.394" cy="841.487" r="5.07203" fill="#25356A" fill-opacity="0.35"/>
<circle cx="134.301" cy="841.487" r="5.07203" fill="#25356A" fill-opacity="0.35"/>
<circle cx="151.208" cy="841.487" r="5.07203" fill="#25356A" fill-opacity="0.35"/>
<circle cx="168.114" cy="841.487" r="5.07203" fill="#25356A" fill-opacity="0.35"/>
<circle cx="185.021" cy="841.487" r="5.07203" fill="#25356A" fill-opacity="0.35"/>
<circle cx="201.928" cy="841.487" r="5.07203" fill="#25356A" fill-opacity="0.35"/>
<circle cx="218.835" cy="841.487" r="5.07203" fill="#25356A" fill-opacity="0.35"/>
<circle cx="235.742" cy="841.487" r="5.07203" fill="#25356A" fill-opacity="0.35"/>
<circle cx="252.648" cy="841.487" r="5.07203" fill="#25356A" fill-opacity="0.35"/>
<circle cx="269.555" cy="841.487" r="5.07203" fill="#25356A" fill-opacity="0.35"/>
<circle cx="286.462" cy="841.487" r="5.07203" fill="#25356A" fill-opacity="0.35"/>
<circle cx="303.369" cy="841.487" r="5.07203" fill="#25356A" fill-opacity="0.35"/>
<circle cx="320.275" cy="841.487" r="5.07203" fill="#25356A" fill-opacity="0.35"/>
<circle cx="337.182" cy="841.487" r="5.07203" fill="#25356A" fill-opacity="0.35"/>
<circle cx="-0.953357" cy="858.394" r="5.07203" fill="#25356A" fill-opacity="0.35"/>
<circle cx="15.9534" cy="858.394" r="5.07203" fill="#25356A" fill-opacity="0.35"/>
<circle cx="32.8602" cy="858.394" r="5.07203" fill="#25356A" fill-opacity="0.35"/>
<circle cx="49.767" cy="858.394" r="5.07203" fill="#25356A" fill-opacity="0.35"/>
<circle cx="66.6737" cy="858.394" r="5.07203" fill="#25356A" fill-opacity="0.35"/>
<circle cx="83.5805" cy="858.394" r="5.07203" fill="#25356A" fill-opacity="0.35"/>
<circle cx="100.487" cy="858.394" r="5.07203" fill="#25356A" fill-opacity="0.35"/>
<circle cx="117.394" cy="858.394" r="5.07203" fill="#25356A" fill-opacity="0.35"/>
<circle cx="134.301" cy="858.394" r="5.07203" fill="#25356A" fill-opacity="0.35"/>
<circle cx="151.208" cy="858.394" r="5.07203" fill="#25356A" fill-opacity="0.35"/>
<circle cx="168.114" cy="858.394" r="5.07203" fill="#25356A" fill-opacity="0.35"/>
<circle cx="185.021" cy="858.394" r="5.07203" fill="#25356A" fill-opacity="0.35"/>
<circle cx="201.928" cy="858.394" r="5.07203" fill="#25356A" fill-opacity="0.35"/>
<circle cx="218.835" cy="858.394" r="5.07203" fill="#25356A" fill-opacity="0.35"/>
<circle cx="235.742" cy="858.394" r="5.07203" fill="#25356A" fill-opacity="0.35"/>
<circle cx="252.648" cy="858.394" r="5.07203" fill="#25356A" fill-opacity="0.35"/>
<circle cx="269.555" cy="858.394" r="5.07203" fill="#25356A" fill-opacity="0.35"/>
<circle cx="286.462" cy="858.394" r="5.07203" fill="#25356A" fill-opacity="0.35"/>
<circle cx="303.369" cy="858.394" r="5.07203" fill="#25356A" fill-opacity="0.35"/>
<circle cx="320.275" cy="858.394" r="5.07203" fill="#25356A" fill-opacity="0.35"/>
<circle cx="337.182" cy="858.394" r="5.07203" fill="#25356A" fill-opacity="0.35"/>
<circle cx="-0.953357" cy="875.301" r="5.07203" fill="#25356A" fill-opacity="0.35"/>
<circle cx="15.9534" cy="875.301" r="5.07203" fill="#25356A" fill-opacity="0.35"/>
<circle cx="32.8602" cy="875.301" r="5.07203" fill="#25356A" fill-opacity="0.35"/>
<circle cx="49.767" cy="875.301" r="5.07203" fill="#25356A" fill-opacity="0.35"/>
<circle cx="66.6737" cy="875.301" r="5.07203" fill="#25356A" fill-opacity="0.35"/>
<circle cx="83.5805" cy="875.301" r="5.07203" fill="#25356A" fill-opacity="0.35"/>
<circle cx="100.487" cy="875.301" r="5.07203" fill="#25356A" fill-opacity="0.35"/>
<circle cx="117.394" cy="875.301" r="5.07203" fill="#25356A" fill-opacity="0.35"/>
<circle cx="134.301" cy="875.301" r="5.07203" fill="#25356A" fill-opacity="0.35"/>
<circle cx="151.208" cy="875.301" r="5.07203" fill="#25356A" fill-opacity="0.35"/>
<circle cx="168.114" cy="875.301" r="5.07203" fill="#25356A" fill-opacity="0.35"/>
<circle cx="185.021" cy="875.301" r="5.07203" fill="#25356A" fill-opacity="0.35"/>
<circle cx="201.928" cy="875.301" r="5.07203" fill="#25356A" fill-opacity="0.35"/>
<circle cx="218.835" cy="875.301" r="5.07203" fill="#25356A" fill-opacity="0.35"/>
<circle cx="235.742" cy="875.301" r="5.07203" fill="#25356A" fill-opacity="0.35"/>
<circle cx="252.648" cy="875.301" r="5.07203" fill="#25356A" fill-opacity="0.35"/>
<circle cx="269.555" cy="875.301" r="5.07203" fill="#25356A" fill-opacity="0.35"/>
<circle cx="286.462" cy="875.301" r="5.07203" fill="#25356A" fill-opacity="0.35"/>
<circle cx="303.369" cy="875.301" r="5.07203" fill="#25356A" fill-opacity="0.35"/>
<circle cx="320.275" cy="875.301" r="5.07203" fill="#25356A" fill-opacity="0.35"/>
<circle cx="337.182" cy="875.301" r="5.07203" fill="#25356A" fill-opacity="0.35"/>
<circle cx="-0.953357" cy="892.208" r="5.07203" fill="#25356A" fill-opacity="0.35"/>
<circle cx="15.9534" cy="892.208" r="5.07203" fill="#25356A" fill-opacity="0.35"/>
<circle cx="32.8602" cy="892.208" r="5.07203" fill="#25356A" fill-opacity="0.35"/>
<circle cx="49.767" cy="892.208" r="5.07203" fill="#25356A" fill-opacity="0.35"/>
<circle cx="66.6737" cy="892.208" r="5.07203" fill="#25356A" fill-opacity="0.35"/>
<circle cx="83.5805" cy="892.208" r="5.07203" fill="#25356A" fill-opacity="0.35"/>
<circle cx="100.487" cy="892.208" r="5.07203" fill="#25356A" fill-opacity="0.35"/>
<circle cx="117.394" cy="892.208" r="5.07203" fill="#25356A" fill-opacity="0.35"/>
<circle cx="134.301" cy="892.208" r="5.07203" fill="#25356A" fill-opacity="0.35"/>
<circle cx="151.208" cy="892.208" r="5.07203" fill="#25356A" fill-opacity="0.35"/>
<circle cx="168.114" cy="892.208" r="5.07203" fill="#25356A" fill-opacity="0.35"/>
<circle cx="185.021" cy="892.208" r="5.07203" fill="#25356A" fill-opacity="0.35"/>
<circle cx="201.928" cy="892.208" r="5.07203" fill="#25356A" fill-opacity="0.35"/>
<circle cx="218.835" cy="892.208" r="5.07203" fill="#25356A" fill-opacity="0.35"/>
<circle cx="235.742" cy="892.208" r="5.07203" fill="#25356A" fill-opacity="0.35"/>
<circle cx="252.648" cy="892.208" r="5.07203" fill="#25356A" fill-opacity="0.35"/>
<circle cx="269.555" cy="892.208" r="5.07203" fill="#25356A" fill-opacity="0.35"/>
<circle cx="286.462" cy="892.208" r="5.07203" fill="#25356A" fill-opacity="0.35"/>
<circle cx="303.369" cy="892.208" r="5.07203" fill="#25356A" fill-opacity="0.35"/>
<circle cx="320.275" cy="892.208" r="5.07203" fill="#25356A" fill-opacity="0.35"/>
<circle cx="337.182" cy="892.208" r="5.07203" fill="#25356A" fill-opacity="0.35"/>
</g>
<g opacity="0.91" filter="url(#filter1_d_114_2)">
<path d="M298.447 745.115C55.6277 532.377 -31.7042 648.327 -39.429 659.783C-39.8513 660.409 -39.9964 661.063 -39.9894 661.819L-38.082 866.999C-36.6919 1016.54 88.6374 1145.87 225.543 1085.68C295.772 1054.8 360.03 1004.55 388.005 922.842C427.397 807.785 318.11 762.342 298.447 745.115Z" fill="#6FCF97"/>
</g>
<defs>
<filter id="filter0_d_114_2" x="-55.9559" y="582.034" width="549.293" height="595.581" filterUnits="userSpaceOnUse" color-interpolation-filters="sRGB">
<feFlood flood-opacity="0" result="BackgroundImageFix"/>
<feColorMatrix in="SourceAlpha" type="matrix" values="0 0 0 0 0 0 0 0 0 0 0 0 0 0 0 0 0 0 127 0" result="hardAlpha"/>
<feOffset dx="20.4354" dy="20.4354"/>
<feGaussianBlur stdDeviation="28.2009"/>
<feColorMatrix type="matrix" values="0 0 0 0 0 0 0 0 0 0 0 0 0 0 0 0 0 0 0.04 0"/>
<feBlend mode="normal" in2="BackgroundImageFix" result="effect1_dropShadow_114_2"/>
<feBlend mode="normal" in="SourceGraphic" in2="effect1_dropShadow_114_2" result="shape"/>
</filter>
<filter id="filter1_d_114_2" x="-75.9559" y="582.034" width="549.293" height="595.581" filterUnits="userSpaceOnUse" color-interpolation-filters="sRGB">
<feFlood flood-opacity="0" result="BackgroundImageFix"/>
<feColorMatrix in="SourceAlpha" type="matrix" values="0 0 0 0 0 0 0 0 0 0 0 0 0 0 0 0 0 0 127 0" result="hardAlpha"/>
<feOffset dx="20.4354" dy="20.4354"/>
<feGaussianBlur stdDeviation="28.2009"/>
<feColorMatrix type="matrix" values="0 0 0 0 0 0 0 0 0 0 0 0 0 0 0 0 0 0 0.04 0"/>
<feBlend mode="normal" in2="BackgroundImageFix" result="effect1_dropShadow_114_2"/>
<feBlend mode="normal" in="SourceGraphic" in2="effect1_dropShadow_114_2" result="shape"/>
</filter>
</defs>
</svg>
