<svg version="1.1" id="Layer_1" xmlns="http://www.w3.org/2000/svg" xmlns:xlink="http://www.w3.org/1999/xlink" x="0px" y="0px"
	 width="100%" viewBox="0 0 1050 868" enable-background="new 0 0 1050 868" xml:space="preserve">
<path fill="#000000" opacity="1.000000" stroke="none" 
	d="
M650.000000,869.000000 
	C433.361481,869.000000 217.222977,869.000000 1.042229,869.000000 
	C1.042229,579.732483 1.042229,290.464996 1.042229,1.098752 
	C350.888580,1.098752 700.777161,1.098752 1050.832886,1.098752 
	C1050.832886,290.333252 1050.832886,579.666626 1050.832886,869.000000 
	C917.464905,869.000000 783.982483,869.000000 650.000000,869.000000 
M693.456238,449.947784 
	C694.009521,449.325562 694.554871,448.696045 695.117188,448.082092 
	C741.927307,396.980469 762.328796,336.735901 755.648010,267.932495 
	C750.858276,218.605225 731.468018,174.934814 697.531494,138.736588 
	C641.141235,78.588028 571.377991,54.655811 490.043182,67.524094 
	C436.709595,75.962212 391.895416,101.668411 356.858032,142.779083 
	C308.749969,199.226089 291.646698,264.593536 305.741364,337.379425 
	C316.158508,391.174408 343.535950,435.495605 386.324524,469.642548 
	C437.727020,510.663788 496.630096,526.545837 561.680481,517.553223 
	C612.995117,510.459412 656.652710,487.406769 693.456238,449.947784 
M148.995514,759.500061 
	C148.995514,765.603455 148.995514,771.706787 148.995514,777.926636 
	C167.559479,777.926636 185.692429,778.557190 203.757690,777.722534 
	C217.623474,777.081848 227.519455,769.282104 231.785919,755.872681 
	C233.978745,748.980774 235.698853,741.620972 235.816452,734.442871 
	C236.255463,707.648193 235.999741,680.840881 235.874329,654.038940 
	C235.841675,647.062805 235.734589,640.044861 234.969421,633.122681 
	C233.054276,615.796875 223.101364,603.778259 206.688828,602.554565 
	C187.694962,601.138489 168.514542,602.224976 148.995514,602.224976 
	C148.995514,654.126282 148.995514,706.313110 148.995514,759.500061 
M821.827087,690.499939 
	C821.827087,695.663879 821.714966,700.830811 821.849121,705.991272 
	C822.186218,718.958191 821.648682,732.048584 823.288757,744.855469 
	C825.324341,760.751831 833.641357,773.284973 849.909912,777.706238 
	C867.053894,782.365356 883.757080,781.492065 897.146362,767.624756 
	C905.447510,759.027100 908.550049,747.958374 908.697632,736.499634 
	C909.111572,704.359558 909.436707,672.195740 908.636414,640.070190 
	C908.055298,616.740906 895.910767,603.436096 873.582458,600.591492 
	C846.243042,597.108643 822.848999,607.681458 821.979126,642.529297 
	C821.588501,658.177673 821.857422,673.842529 821.827087,690.499939 
M407.186157,675.487610 
	C394.419128,675.487610 381.652069,675.487610 368.814331,675.487610 
	C368.814331,686.015137 368.814331,695.901184 368.814331,706.238708 
	C372.056641,706.238708 374.964172,706.238708 377.967499,706.238708 
	C377.967499,715.681763 378.036835,724.669006 377.919708,733.653748 
	C377.889679,735.957520 377.417999,738.287903 376.890961,740.545776 
	C375.919830,744.706299 373.452148,747.345825 368.920959,747.393677 
	C364.480591,747.440552 361.616455,745.228271 360.730316,740.901794 
	C360.100861,737.828491 359.581757,734.666626 359.572113,731.542603 
	C359.485016,703.218567 359.487671,674.894043 359.573669,646.570007 
	C359.582123,643.792175 360.000305,640.919373 360.797974,638.261658 
	C362.164001,633.710144 365.910461,632.372131 370.231140,632.590881 
	C374.735077,632.818909 376.640289,635.983582 376.956451,639.923279 
	C377.395081,645.389282 377.340271,650.895447 377.472412,656.385010 
	C377.514526,658.134155 377.479034,659.885193 377.479034,661.628296 
	C389.384338,661.628296 400.497162,661.628296 411.971924,661.628296 
	C412.214722,648.405457 411.480103,635.520081 406.986511,623.176758 
	C402.602631,611.134705 393.942810,603.517395 381.315674,601.293091 
	C374.985840,600.177979 368.353943,599.816162 361.945526,600.289551 
	C343.093414,601.682251 331.225739,611.844360 326.867035,630.204468 
	C325.420288,636.298401 324.642242,642.687012 324.583099,648.950562 
	C324.336182,675.106628 324.295135,701.268372 324.593964,727.423340 
	C324.680817,735.024780 325.525879,742.742371 327.101959,750.178101 
	C331.517090,771.008667 345.216553,781.341431 365.546722,779.861023 
	C376.779449,779.043030 385.375580,773.768311 391.519379,763.590454 
	C393.307983,768.010742 394.750427,771.836975 396.429810,775.556213 
	C396.894440,776.585144 398.021210,777.980652 398.916779,778.036194 
	C403.141571,778.297974 407.391571,778.152893 411.844482,778.152893 
	C411.844482,744.415588 411.808838,711.444092 411.902618,678.473022 
	C411.911438,675.361694 410.226318,675.391113 407.186157,675.487610 
M664.996887,730.356018 
	C664.558777,734.148560 664.329102,737.980408 663.624146,741.722717 
	C662.914612,745.489380 660.233032,747.361206 656.457336,747.404297 
	C652.680298,747.447388 649.901001,745.625977 649.172241,741.885010 
	C648.413757,737.991577 647.904114,733.981201 647.895447,730.020630 
	C647.806213,689.198059 647.840637,648.375183 647.840637,607.552429 
	C647.840637,605.740845 647.840637,603.929199 647.840637,601.858643 
	C636.145264,601.858643 624.765076,601.858643 613.159363,601.858643 
	C613.159363,604.045959 613.159363,605.870972 613.159363,607.695923 
	C613.159363,646.352600 613.122803,685.009338 613.196838,723.665894 
	C613.208618,729.814758 613.338013,736.008057 614.065857,742.102844 
	C616.659912,763.825012 627.118042,777.130676 649.562683,779.712036 
	C669.779724,782.037109 686.049622,775.159546 693.579773,760.294006 
	C697.794983,751.972534 699.178650,742.951416 699.176331,733.680908 
	C699.165955,691.191895 699.174133,648.702881 699.162048,606.213867 
	C699.161621,604.767456 699.016418,603.320984 698.931763,601.745239 
	C687.516663,601.745239 676.418701,601.745239 664.996826,601.745239 
	C664.996826,644.459167 664.996826,686.924194 664.996887,730.356018 
M505.167206,687.650391 
	C502.309692,717.703735 499.452179,747.757080 496.593445,777.823608 
	C508.429810,777.823608 519.658936,777.823608 530.833618,777.823608 
	C531.557617,768.394348 532.254700,759.316345 532.963074,750.090149 
	C540.210266,750.090149 547.127808,750.090149 554.273621,750.090149 
	C555.130249,759.519226 555.966919,768.729187 556.791504,777.805725 
	C568.267639,777.805725 579.162170,777.805725 590.137756,777.805725 
	C590.021973,775.773132 589.982727,774.106079 589.824707,772.450378 
	C584.513184,716.796509 579.161255,661.146484 573.942749,605.483887 
	C573.634338,602.193848 572.461975,601.399902 569.331360,601.426514 
	C552.507019,601.569824 535.678406,601.650696 518.856995,601.385742 
	C514.575012,601.318359 513.286987,602.434265 512.904114,606.787109 
	C510.558258,633.455505 507.850372,660.092102 505.167206,687.650391 
M742.480469,705.499634 
	C742.480469,729.607239 742.480469,753.714844 742.480469,777.901978 
	C754.562195,777.901978 766.127625,777.901978 778.229004,777.901978 
	C778.229004,730.309143 778.229004,682.988098 778.229004,635.358032 
	C785.389648,635.358032 792.013245,635.358032 798.739136,635.358032 
	C798.739136,623.983093 798.739136,612.924622 798.739136,601.833435 
	C772.927856,601.833435 747.385254,601.833435 721.894409,601.833435 
	C721.894409,613.222229 721.894409,624.261536 721.894409,635.731934 
	C728.893677,635.731934 735.482422,635.731934 742.480530,635.731934 
	C742.480530,658.947876 742.480530,681.723694 742.480469,705.499634 
M438.473083,753.499634 
	C438.473083,761.619934 438.473083,769.740234 438.473083,777.959473 
	C450.135864,777.959473 461.239685,777.959473 472.595886,777.959473 
	C472.595886,719.182312 472.595886,660.626282 472.595886,601.822449 
	C461.269775,601.822449 450.059296,601.822449 438.473114,601.822449 
	C438.473114,652.274841 438.473114,702.387207 438.473083,753.499634 
M263.159576,684.499939 
	C263.159576,715.590881 263.159576,746.681824 263.159576,777.882202 
	C274.755981,777.882202 285.813202,777.882202 296.936371,777.882202 
	C296.936371,719.041809 296.936371,660.491028 296.936371,601.809387 
	C285.620605,601.809387 274.542511,601.809387 263.159576,601.809387 
	C263.159576,629.247925 263.159576,656.373901 263.159576,684.499939 
z"/>
<path fill="#E1E1E1" opacity="1.000000" stroke="none" 
	d="
M693.205078,450.198914 
	C656.652710,487.406769 612.995117,510.459412 561.680481,517.553223 
	C496.630096,526.545837 437.727020,510.663788 386.324524,469.642548 
	C343.535950,435.495605 316.158508,391.174408 305.741364,337.379425 
	C291.646698,264.593536 308.749969,199.226089 356.858032,142.779083 
	C391.895416,101.668411 436.709595,75.962212 490.043182,67.524094 
	C571.377991,54.655811 641.141235,78.588028 697.531494,138.736588 
	C731.468018,174.934814 750.858276,218.605225 755.648010,267.932495 
	C762.328796,336.735901 741.927307,396.980469 695.117188,448.082092 
	C694.554871,448.696045 694.009521,449.325562 693.205078,450.198914 
M647.877869,129.594925 
	C596.582581,93.279175 540.178650,81.977646 479.268005,97.133728 
	C345.856598,130.329788 284.936249,287.583771 360.620819,402.282440 
	C370.612488,417.424561 389.095978,418.392151 400.495453,404.342926 
	C412.872925,389.088379 424.890717,373.526276 437.687317,358.632690 
	C447.313080,347.429626 460.166504,341.286926 474.971252,341.106628 
	C508.618408,340.696808 542.275269,340.683502 575.924072,340.978119 
	C593.464478,341.131683 607.536987,349.085144 618.460510,362.654449 
	C630.675110,377.827606 642.759888,393.105469 654.998779,408.258911 
	C665.765015,421.588898 684.225891,421.416718 693.756104,407.475769 
	C728.029968,357.339172 738.396362,302.470367 724.164795,243.472412 
	C712.856079,196.591660 686.914490,159.013428 647.877869,129.594925 
M552.499939,421.164185 
	C575.157593,421.164154 597.815735,421.232025 620.471985,421.056427 
	C622.674500,421.039337 625.858643,420.099579 626.777649,418.529175 
	C627.668518,417.006836 626.856934,413.720978 625.705505,411.895721 
	C618.430176,400.362671 610.861511,389.014435 603.371216,377.617340 
	C598.217407,369.775482 591.019836,365.943878 581.543640,365.966492 
	C544.558472,366.054749 507.572845,366.054108 470.587677,365.967499 
	C460.911713,365.944855 453.647461,369.930969 448.434357,377.965271 
	C441.284821,388.983826 433.990692,399.911224 427.030334,411.047546 
	C425.705170,413.167725 424.394958,416.802643 425.338013,418.424591 
	C426.341949,420.151215 430.027649,421.045349 432.547302,421.055206 
	C472.197693,421.210449 511.848877,421.164185 552.499939,421.164185 
z"/>
<path fill="#E1E1E1" opacity="1.000000" stroke="none" 
	d="
M148.995514,759.000000 
	C148.995514,706.313110 148.995514,654.126282 148.995514,602.224976 
	C168.514542,602.224976 187.694962,601.138489 206.688828,602.554565 
	C223.101364,603.778259 233.054276,615.796875 234.969421,633.122681 
	C235.734589,640.044861 235.841675,647.062805 235.874329,654.038940 
	C235.999741,680.840881 236.255463,707.648193 235.816452,734.442871 
	C235.698853,741.620972 233.978745,748.980774 231.785919,755.872681 
	C227.519455,769.282104 217.623474,777.081848 203.757690,777.722534 
	C185.692429,778.557190 167.559479,777.926636 148.995514,777.926636 
	C148.995514,771.706787 148.995514,765.603455 148.995514,759.000000 
M184.515411,695.499634 
	C184.515411,712.562012 184.515411,729.624329 184.515411,746.995605 
	C186.900497,746.995605 188.706238,747.019165 190.511169,746.991394 
	C197.203415,746.888245 200.275864,744.485535 200.306122,737.822388 
	C200.448959,706.383667 200.311035,674.943665 200.230453,643.504150 
	C200.225800,641.692383 200.358902,639.576477 199.511536,638.144348 
	C198.346100,636.174805 196.572693,633.877136 194.577698,633.247498 
	C191.582733,632.302368 188.169601,632.682373 184.515350,632.475098 
	C184.515350,653.633789 184.515350,674.066650 184.515411,695.499634 
z"/>
<path fill="#E1E1E1" opacity="1.000000" stroke="none" 
	d="
M821.827087,689.999878 
	C821.857422,673.842529 821.588501,658.177673 821.979126,642.529297 
	C822.848999,607.681458 846.243042,597.108643 873.582458,600.591492 
	C895.910767,603.436096 908.055298,616.740906 908.636414,640.070190 
	C909.436707,672.195740 909.111572,704.359558 908.697632,736.499634 
	C908.550049,747.958374 905.447510,759.027100 897.146362,767.624756 
	C883.757080,781.492065 867.053894,782.365356 849.909912,777.706238 
	C833.641357,773.284973 825.324341,760.751831 823.288757,744.855469 
	C821.648682,732.048584 822.186218,718.958191 821.849121,705.991272 
	C821.714966,700.830811 821.827087,695.663879 821.827087,689.999878 
M868.697998,746.756470 
	C872.732849,744.084351 873.082581,739.819580 873.109863,735.666260 
	C873.304382,706.030945 873.385376,676.394836 873.461609,646.758911 
	C873.467163,644.604309 873.243042,642.436890 872.964783,640.296387 
	C872.433105,636.206421 870.981201,632.790771 866.115723,632.557373 
	C861.382751,632.330261 858.634094,634.864929 857.568115,639.272034 
	C857.104126,641.190369 856.872986,643.212402 856.870117,645.187866 
	C856.827637,674.664185 856.831238,704.140625 856.863403,733.617004 
	C856.865601,735.604980 856.998352,737.629456 857.387207,739.573608 
	C858.681335,746.043640 861.163208,747.739746 868.697998,746.756470 
z"/>
<path fill="#E0E0E0" opacity="1.000000" stroke="none" 
	d="
M407.647430,675.487793 
	C410.226318,675.391113 411.911438,675.361694 411.902618,678.473022 
	C411.808838,711.444092 411.844482,744.415588 411.844482,778.152893 
	C407.391571,778.152893 403.141571,778.297974 398.916779,778.036194 
	C398.021210,777.980652 396.894440,776.585144 396.429810,775.556213 
	C394.750427,771.836975 393.307983,768.010742 391.519379,763.590454 
	C385.375580,773.768311 376.779449,779.043030 365.546722,779.861023 
	C345.216553,781.341431 331.517090,771.008667 327.101959,750.178101 
	C325.525879,742.742371 324.680817,735.024780 324.593964,727.423340 
	C324.295135,701.268372 324.336182,675.106628 324.583099,648.950562 
	C324.642242,642.687012 325.420288,636.298401 326.867035,630.204468 
	C331.225739,611.844360 343.093414,601.682251 361.945526,600.289551 
	C368.353943,599.816162 374.985840,600.177979 381.315674,601.293091 
	C393.942810,603.517395 402.602631,611.134705 406.986511,623.176758 
	C411.480103,635.520081 412.214722,648.405457 411.971924,661.628296 
	C400.497162,661.628296 389.384338,661.628296 377.479034,661.628296 
	C377.479034,659.885193 377.514526,658.134155 377.472412,656.385010 
	C377.340271,650.895447 377.395081,645.389282 376.956451,639.923279 
	C376.640289,635.983582 374.735077,632.818909 370.231140,632.590881 
	C365.910461,632.372131 362.164001,633.710144 360.797974,638.261658 
	C360.000305,640.919373 359.582123,643.792175 359.573669,646.570007 
	C359.487671,674.894043 359.485016,703.218567 359.572113,731.542603 
	C359.581757,734.666626 360.100861,737.828491 360.730316,740.901794 
	C361.616455,745.228271 364.480591,747.440552 368.920959,747.393677 
	C373.452148,747.345825 375.919830,744.706299 376.890961,740.545776 
	C377.417999,738.287903 377.889679,735.957520 377.919708,733.653748 
	C378.036835,724.669006 377.967499,715.681763 377.967499,706.238708 
	C374.964172,706.238708 372.056641,706.238708 368.814331,706.238708 
	C368.814331,695.901184 368.814331,686.015137 368.814331,675.487610 
	C381.652069,675.487610 394.419128,675.487610 407.647430,675.487793 
z"/>
<path fill="#E1E1E1" opacity="1.000000" stroke="none" 
	d="
M664.996826,729.872559 
	C664.996826,686.924194 664.996826,644.459167 664.996826,601.745239 
	C676.418701,601.745239 687.516663,601.745239 698.931763,601.745239 
	C699.016418,603.320984 699.161621,604.767456 699.162048,606.213867 
	C699.174133,648.702881 699.165955,691.191895 699.176331,733.680908 
	C699.178650,742.951416 697.794983,751.972534 693.579773,760.294006 
	C686.049622,775.159546 669.779724,782.037109 649.562683,779.712036 
	C627.118042,777.130676 616.659912,763.825012 614.065857,742.102844 
	C613.338013,736.008057 613.208618,729.814758 613.196838,723.665894 
	C613.122803,685.009338 613.159363,646.352600 613.159363,607.695923 
	C613.159363,605.870972 613.159363,604.045959 613.159363,601.858643 
	C624.765076,601.858643 636.145264,601.858643 647.840637,601.858643 
	C647.840637,603.929199 647.840637,605.740845 647.840637,607.552429 
	C647.840637,648.375183 647.806213,689.198059 647.895447,730.020630 
	C647.904114,733.981201 648.413757,737.991577 649.172241,741.885010 
	C649.901001,745.625977 652.680298,747.447388 656.457336,747.404297 
	C660.233032,747.361206 662.914612,745.489380 663.624146,741.722717 
	C664.329102,737.980408 664.558777,734.148560 664.996826,729.872559 
z"/>
<path fill="#E1E1E1" opacity="1.000000" stroke="none" 
	d="
M505.215149,687.194824 
	C507.850372,660.092102 510.558258,633.455505 512.904114,606.787109 
	C513.286987,602.434265 514.575012,601.318359 518.856995,601.385742 
	C535.678406,601.650696 552.507019,601.569824 569.331360,601.426514 
	C572.461975,601.399902 573.634338,602.193848 573.942749,605.483887 
	C579.161255,661.146484 584.513184,716.796509 589.824707,772.450378 
	C589.982727,774.106079 590.021973,775.773132 590.137756,777.805725 
	C579.162170,777.805725 568.267639,777.805725 556.791504,777.805725 
	C555.966919,768.729187 555.130249,759.519226 554.273621,750.090149 
	C547.127808,750.090149 540.210266,750.090149 532.963074,750.090149 
	C532.254700,759.316345 531.557617,768.394348 530.833618,777.823608 
	C519.658936,777.823608 508.429810,777.823608 496.593445,777.823608 
	C499.452179,747.757080 502.309692,717.703735 505.215149,687.194824 
M537.641602,693.999512 
	C536.980042,703.040344 536.318481,712.081177 535.650085,721.215515 
	C541.333313,721.215515 546.243591,721.215515 551.616455,721.215515 
	C548.991455,691.219299 546.397339,661.576172 543.803284,631.933044 
	C543.232300,631.959534 542.661377,631.986023 542.090393,632.012512 
	C540.651672,652.366882 539.212952,672.721313 537.641602,693.999512 
z"/>
<path fill="#E0E0E0" opacity="1.000000" stroke="none" 
	d="
M742.480469,704.999634 
	C742.480530,681.723694 742.480530,658.947876 742.480530,635.731934 
	C735.482422,635.731934 728.893677,635.731934 721.894409,635.731934 
	C721.894409,624.261536 721.894409,613.222229 721.894409,601.833435 
	C747.385254,601.833435 772.927856,601.833435 798.739136,601.833435 
	C798.739136,612.924622 798.739136,623.983093 798.739136,635.358032 
	C792.013245,635.358032 785.389648,635.358032 778.229004,635.358032 
	C778.229004,682.988098 778.229004,730.309143 778.229004,777.901978 
	C766.127625,777.901978 754.562195,777.901978 742.480469,777.901978 
	C742.480469,753.714844 742.480469,729.607239 742.480469,704.999634 
z"/>
<path fill="#DEDEDE" opacity="1.000000" stroke="none" 
	d="
M438.473083,752.999634 
	C438.473114,702.387207 438.473114,652.274841 438.473114,601.822449 
	C450.059296,601.822449 461.269775,601.822449 472.595886,601.822449 
	C472.595886,660.626282 472.595886,719.182312 472.595886,777.959473 
	C461.239685,777.959473 450.135864,777.959473 438.473083,777.959473 
	C438.473083,769.740234 438.473083,761.619934 438.473083,752.999634 
z"/>
<path fill="#E1E1E1" opacity="1.000000" stroke="none" 
	d="
M263.159576,683.999878 
	C263.159576,656.373901 263.159576,629.247925 263.159576,601.809387 
	C274.542511,601.809387 285.620605,601.809387 296.936371,601.809387 
	C296.936371,660.491028 296.936371,719.041809 296.936371,777.882202 
	C285.813202,777.882202 274.755981,777.882202 263.159576,777.882202 
	C263.159576,746.681824 263.159576,715.590881 263.159576,683.999878 
z"/>
<path fill="#010101" opacity="1.000000" stroke="none" 
	d="
M648.164429,129.808563 
	C686.914490,159.013428 712.856079,196.591660 724.164795,243.472412 
	C738.396362,302.470367 728.029968,357.339172 693.756104,407.475769 
	C684.225891,421.416718 665.765015,421.588898 654.998779,408.258911 
	C642.759888,393.105469 630.675110,377.827606 618.460510,362.654449 
	C607.536987,349.085144 593.464478,341.131683 575.924072,340.978119 
	C542.275269,340.683502 508.618408,340.696808 474.971252,341.106628 
	C460.166504,341.286926 447.313080,347.429626 437.687317,358.632690 
	C424.890717,373.526276 412.872925,389.088379 400.495453,404.342926 
	C389.095978,418.392151 370.612488,417.424561 360.620819,402.282440 
	C284.936249,287.583771 345.856598,130.329788 479.268005,97.133728 
	C540.178650,81.977646 596.582581,93.279175 648.164429,129.808563 
M656.381836,155.985947 
	C656.192871,156.262192 656.003906,156.538437 655.163879,156.998871 
	C615.389282,191.667206 575.593262,226.310959 535.883667,261.053558 
	C532.914856,263.650940 530.011108,265.219666 525.933411,265.678253 
	C511.503357,267.301056 501.209869,279.644867 502.247009,293.424072 
	C503.349518,308.072144 515.077820,319.081909 529.264587,318.786407 
	C543.844543,318.482758 555.176514,307.097443 555.865540,292.312836 
	C555.956848,290.353058 556.741455,288.134491 557.912781,286.563538 
	C565.370422,276.562012 573.021912,266.704987 580.618225,256.807007 
	C606.037292,223.686020 631.460083,190.567841 657.235962,157.203552 
	C657.499939,157.039688 657.649109,156.803345 657.909058,155.978638 
	C657.825073,155.708420 657.741150,155.438187 657.657166,155.167969 
	C657.403015,155.409042 657.148865,155.650116 656.381836,155.985947 
M673.510559,201.078186 
	C668.944153,203.726212 664.377747,206.374237 659.683960,209.096115 
	C662.031555,213.122253 664.097534,216.665436 666.202454,220.275452 
	C675.241394,215.048340 683.826599,210.083618 692.580078,205.021591 
	C690.123840,200.937988 688.026306,197.450623 685.906738,193.926743 
	C681.646973,196.390289 677.899963,198.557266 673.510559,201.078186 
M379.382904,385.794281 
	C385.686462,382.148224 391.989990,378.502167 398.392334,374.798920 
	C396.010193,370.784485 393.913116,367.250519 391.775970,363.648956 
	C382.769562,368.861633 374.194977,373.824371 365.442993,378.889801 
	C367.928894,382.992859 370.029083,386.459259 372.141724,389.946228 
	C374.708191,388.476410 376.731201,387.317810 379.382904,385.794281 
M664.288330,366.786560 
	C662.831482,369.356354 661.374573,371.926147 659.704407,374.872223 
	C668.442200,379.921600 677.003418,384.868896 686.007568,390.072205 
	C688.160461,386.352783 690.185486,382.854279 692.401550,379.025696 
	C684.027344,374.187469 676.042114,369.499298 667.936890,365.028717 
	C667.266724,364.659119 665.783386,365.763763 664.288330,366.786560 
M617.211609,151.780121 
	C620.410095,146.218704 623.608643,140.657272 626.949646,134.848160 
	C623.149170,132.656052 619.751099,130.696060 615.924866,128.489090 
	C610.771545,137.413971 605.783997,146.051819 600.711975,154.835968 
	C604.656860,157.114929 608.064087,159.083252 611.748840,161.211929 
	C613.541931,158.118301 615.195190,155.265976 617.211609,151.780121 
M391.427673,219.748444 
	C393.743622,216.289047 396.059570,212.829636 398.513214,209.164520 
	C389.253326,203.828873 380.703949,198.902618 371.962616,193.865768 
	C369.719971,197.754013 367.759613,201.152847 365.592255,204.910614 
	C374.178650,209.864563 382.484650,214.656738 391.427673,219.748444 
M437.003143,145.572006 
	C440.041901,150.810349 443.080658,156.048706 446.146484,161.333710 
	C450.143066,159.007263 453.547882,157.025299 457.159088,154.923187 
	C451.985901,145.962616 447.045746,137.405640 441.947174,128.574280 
	C438.051331,130.863617 434.561554,132.914352 430.940948,135.041946 
	C433.018005,138.634552 434.836853,141.780563 437.003143,145.572006 
M700.497437,285.520050 
	C695.062866,285.520050 689.628296,285.520050 684.080750,285.520050 
	C684.080750,290.058624 684.080750,294.095856 684.080750,298.133911 
	C694.155762,298.133911 703.890564,298.133911 713.740051,298.133911 
	C713.740051,293.833252 713.740051,289.765045 713.740051,285.520020 
	C709.468384,285.520020 705.482849,285.520020 700.497437,285.520050 
M343.969849,294.447571 
	C344.069366,295.714355 344.168854,296.981140 344.255585,298.085144 
	C354.384186,298.085144 364.127380,298.085144 373.881653,298.085144 
	C373.881653,293.758240 373.881653,289.719849 373.881653,285.793823 
	C363.775024,285.793823 354.041504,285.793823 343.969818,285.793823 
	C343.969818,288.531158 343.969818,290.999268 343.969849,294.447571 
M535.416992,118.507042 
	C535.416992,114.754730 535.416992,111.002426 535.416992,107.313522 
	C530.786743,107.313522 526.750549,107.313522 522.874756,107.313522 
	C522.874756,117.409630 522.874756,127.139320 522.874756,136.829712 
	C527.217834,136.829712 531.250977,136.829712 535.416992,136.829712 
	C535.416992,130.798065 535.416992,125.150833 535.416992,118.507042 
z"/>
<path fill="#000000" opacity="1.000000" stroke="none" 
	d="
M551.999878,421.164185 
	C511.848877,421.164185 472.197693,421.210449 432.547302,421.055206 
	C430.027649,421.045349 426.341949,420.151215 425.338013,418.424591 
	C424.394958,416.802643 425.705170,413.167725 427.030334,411.047546 
	C433.990692,399.911224 441.284821,388.983826 448.434357,377.965271 
	C453.647461,369.930969 460.911713,365.944855 470.587677,365.967499 
	C507.572845,366.054108 544.558472,366.054749 581.543640,365.966492 
	C591.019836,365.943878 598.217407,369.775482 603.371216,377.617340 
	C610.861511,389.014435 618.430176,400.362671 625.705505,411.895721 
	C626.856934,413.720978 627.668518,417.006836 626.777649,418.529175 
	C625.858643,420.099579 622.674500,421.039337 620.471985,421.056427 
	C597.815735,421.232025 575.157593,421.164154 551.999878,421.164185 
z"/>
<path fill="#000000" opacity="1.000000" stroke="none" 
	d="
M184.515381,694.999634 
	C184.515350,674.066650 184.515350,653.633789 184.515350,632.475098 
	C188.169601,632.682373 191.582733,632.302368 194.577698,633.247498 
	C196.572693,633.877136 198.346100,636.174805 199.511536,638.144348 
	C200.358902,639.576477 200.225800,641.692383 200.230453,643.504150 
	C200.311035,674.943665 200.448959,706.383667 200.306122,737.822388 
	C200.275864,744.485535 197.203415,746.888245 190.511169,746.991394 
	C188.706238,747.019165 186.900497,746.995605 184.515411,746.995605 
	C184.515411,729.624329 184.515411,712.562012 184.515381,694.999634 
z"/>
<path fill="#010101" opacity="1.000000" stroke="none" 
	d="
M868.301758,746.880615 
	C861.163208,747.739746 858.681335,746.043640 857.387207,739.573608 
	C856.998352,737.629456 856.865601,735.604980 856.863403,733.617004 
	C856.831238,704.140625 856.827637,674.664185 856.870117,645.187866 
	C856.872986,643.212402 857.104126,641.190369 857.568115,639.272034 
	C858.634094,634.864929 861.382751,632.330261 866.115723,632.557373 
	C870.981201,632.790771 872.433105,636.206421 872.964783,640.296387 
	C873.243042,642.436890 873.467163,644.604309 873.461609,646.758911 
	C873.385376,676.394836 873.304382,706.030945 873.109863,735.666260 
	C873.082581,739.819580 872.732849,744.084351 868.301758,746.880615 
z"/>
<path fill="#060606" opacity="1.000000" stroke="none" 
	d="
M537.707886,693.537598 
	C539.212952,672.721313 540.651672,652.366882 542.090393,632.012512 
	C542.661377,631.986023 543.232300,631.959534 543.803284,631.933044 
	C546.397339,661.576172 548.991455,691.219299 551.616455,721.215515 
	C546.243591,721.215515 541.333313,721.215515 535.650085,721.215515 
	C536.318481,712.081177 536.980042,703.040344 537.707886,693.537598 
z"/>
<path fill="#E1E1E1" opacity="1.000000" stroke="none" 
	d="
M656.881348,157.448547 
	C631.460083,190.567841 606.037292,223.686020 580.618225,256.807007 
	C573.021912,266.704987 565.370422,276.562012 557.912781,286.563538 
	C556.741455,288.134491 555.956848,290.353058 555.865540,292.312836 
	C555.176514,307.097443 543.844543,318.482758 529.264587,318.786407 
	C515.077820,319.081909 503.349518,308.072144 502.247009,293.424072 
	C501.209869,279.644867 511.503357,267.301056 525.933411,265.678253 
	C530.011108,265.219666 532.914856,263.650940 535.883667,261.053558 
	C575.593262,226.310959 615.389282,191.667206 655.746216,157.081787 
	C656.512756,157.259293 656.697083,157.353912 656.881348,157.448547 
z"/>
<path fill="#DBDBDB" opacity="1.000000" stroke="none" 
	d="
M673.831787,200.901215 
	C677.899963,198.557266 681.646973,196.390289 685.906738,193.926743 
	C688.026306,197.450623 690.123840,200.937988 692.580078,205.021591 
	C683.826599,210.083618 675.241394,215.048340 666.202454,220.275452 
	C664.097534,216.665436 662.031555,213.122253 659.683960,209.096115 
	C664.377747,206.374237 668.944153,203.726212 673.831787,200.901215 
z"/>
<path fill="#DBDBDB" opacity="1.000000" stroke="none" 
	d="
M379.068542,385.976746 
	C376.731201,387.317810 374.708191,388.476410 372.141724,389.946228 
	C370.029083,386.459259 367.928894,382.992859 365.442993,378.889801 
	C374.194977,373.824371 382.769562,368.861633 391.775970,363.648956 
	C393.913116,367.250519 396.010193,370.784485 398.392334,374.798920 
	C391.989990,378.502167 385.686462,382.148224 379.068542,385.976746 
z"/>
<path fill="#DBDBDB" opacity="1.000000" stroke="none" 
	d="
M664.483154,366.484985 
	C665.783386,365.763763 667.266724,364.659119 667.936890,365.028717 
	C676.042114,369.499298 684.027344,374.187469 692.401550,379.025696 
	C690.185486,382.854279 688.160461,386.352783 686.007568,390.072205 
	C677.003418,384.868896 668.442200,379.921600 659.704407,374.872223 
	C661.374573,371.926147 662.831482,369.356354 664.483154,366.484985 
z"/>
<path fill="#DBDBDB" opacity="1.000000" stroke="none" 
	d="
M617.030029,152.096893 
	C615.195190,155.265976 613.541931,158.118301 611.748840,161.211929 
	C608.064087,159.083252 604.656860,157.114929 600.711975,154.835968 
	C605.783997,146.051819 610.771545,137.413971 615.924866,128.489090 
	C619.751099,130.696060 623.149170,132.656052 626.949646,134.848160 
	C623.608643,140.657272 620.410095,146.218704 617.030029,152.096893 
z"/>
<path fill="#DBDBDB" opacity="1.000000" stroke="none" 
	d="
M391.109161,219.598694 
	C382.484650,214.656738 374.178650,209.864563 365.592255,204.910614 
	C367.759613,201.152847 369.719971,197.754013 371.962616,193.865768 
	C380.703949,198.902618 389.253326,203.828873 398.513214,209.164520 
	C396.059570,212.829636 393.743622,216.289047 391.109161,219.598694 
z"/>
<path fill="#DADADA" opacity="1.000000" stroke="none" 
	d="
M436.829407,145.249298 
	C434.836853,141.780563 433.018005,138.634552 430.940948,135.041946 
	C434.561554,132.914352 438.051331,130.863617 441.947174,128.574280 
	C447.045746,137.405640 451.985901,145.962616 457.159088,154.923187 
	C453.547882,157.025299 450.143066,159.007263 446.146484,161.333710 
	C443.080658,156.048706 440.041901,150.810349 436.829407,145.249298 
z"/>
<path fill="#E3E3E3" opacity="1.000000" stroke="none" 
	d="
M700.997375,285.520020 
	C705.482849,285.520020 709.468384,285.520020 713.740051,285.520020 
	C713.740051,289.765045 713.740051,293.833252 713.740051,298.133911 
	C703.890564,298.133911 694.155762,298.133911 684.080750,298.133911 
	C684.080750,294.095856 684.080750,290.058624 684.080750,285.520050 
	C689.628296,285.520050 695.062866,285.520050 700.997375,285.520020 
z"/>
<path fill="#E3E3E3" opacity="1.000000" stroke="none" 
	d="
M343.969849,293.957458 
	C343.969818,290.999268 343.969818,288.531158 343.969818,285.793823 
	C354.041504,285.793823 363.775024,285.793823 373.881653,285.793823 
	C373.881653,289.719849 373.881653,293.758240 373.881653,298.085144 
	C364.127380,298.085144 354.384186,298.085144 344.255585,298.085144 
	C344.168854,296.981140 344.069366,295.714355 343.969849,293.957458 
z"/>
<path fill="#E3E3E3" opacity="1.000000" stroke="none" 
	d="
M535.416992,119.005325 
	C535.416992,125.150833 535.416992,130.798065 535.416992,136.829712 
	C531.250977,136.829712 527.217834,136.829712 522.874756,136.829712 
	C522.874756,127.139320 522.874756,117.409630 522.874756,107.313522 
	C526.750549,107.313522 530.786743,107.313522 535.416992,107.313522 
	C535.416992,111.002426 535.416992,114.754730 535.416992,119.005325 
z"/>
<path fill="#E1E1E1" opacity="1.000000" stroke="none" 
	d="
M656.071716,156.989685 
	C656.003906,156.538437 656.192871,156.262192 656.826172,156.101562 
	C657.270508,156.217194 657.683533,156.494507 657.683533,156.494507 
	C657.649109,156.803345 657.499939,157.039688 657.058655,157.326050 
	C656.697083,157.353912 656.512756,157.259293 656.071716,156.989685 
z"/>
<path fill="#E1E1E1" opacity="1.000000" stroke="none" 
	d="
M657.082642,156.054199 
	C657.148865,155.650116 657.403015,155.409042 657.657227,155.167969 
	C657.741150,155.438187 657.825073,155.708420 657.796265,156.236572 
	C657.683533,156.494507 657.270508,156.217194 657.082642,156.054199 
z"/>
</svg>